<svg width="100" height="100" viewBox="0 0 100 100" fill="none" xmlns="http://www.w3.org/2000/svg">
  <!-- 3D Tote Bag Design -->
  <!-- Base/Bottom of bag -->
  <path d="M20 70L30 85H70L80 70L20 70Z" fill="#2563eb" />
  
  <!-- Main body of bag with 3D effect -->
  <path d="M20 30V70H80V30L75 25H25L20 30Z" fill="#3b82f6" />
  <path d="M25 25L20 30H80L75 25H25Z" fill="#60a5fa" />
  
  <!-- Handles -->
  <path d="M35 25C35 15 45 15 50 15C55 15 65 15 65 25" stroke="#1d4ed8" stroke-width="6" stroke-linecap="round" fill="none" />
  
  <!-- Highlights/Shadows for 3D effect -->
  <path d="M30 40L70 40" stroke="#93c5fd" stroke-width="2" opacity="0.5" />
  <path d="M25 50L75 50" stroke="#93c5fd" stroke-width="2" opacity="0.5" />
  <path d="M23 60L77 60" stroke="#93c5fd" stroke-width="2" opacity="0.5" />
  
  <!-- Side shadows -->
  <path d="M20 30V70" stroke="#1d4ed8" stroke-width="3" />
  <path d="M80 30V70" stroke="#1d4ed8" stroke-width="3" />
  
  <!-- Additional 3D details -->
  <circle cx="30" cy="35" r="2" fill="#60a5fa" opacity="0.8" />
  <circle cx="70" cy="35" r="2" fill="#60a5fa" opacity="0.8" />
</svg>